<?xml version="1.0" encoding="UTF-8"?>
<svg id="Capa_1" data-name="Capa 1" xmlns="http://www.w3.org/2000/svg" viewBox="0 0 1080 1080">
  <path d="m773.06,356.74c0-52.92-.02-105.85.03-158.77,0-4.41.24-8.84.66-13.23.64-6.72,3.6-8.76,9.36-5.25,11.54,7.03,23.13,14.17,33.74,22.5,50.42,39.55,80.33,91.62,92.13,154.26,5.89,31.29,8.31,62.99,9.66,94.78,1.38,32.4.28,64.7-3.6,96.89-5.24,43.48-15.58,85.43-37.42,123.9-28.68,50.51-71.09,85.11-124.38,106.88-46.04,18.81-93.99,27.52-143.75,24.92-45.57-2.39-88.65-14.59-129.7-34.28-1.28-.62-2.56-1.25-3.85-1.84-11.51-5.16-16.97-13.9-16.88-26.66.32-46.36.37-92.71.48-139.07.01-4.42-.41-8.83-.37-13.25.06-7.07,2.71-10.83,8.34-12.33,6.03-1.61,10.26.12,13.61,6.67,7.06,13.82,15.7,26.45,26.64,37.48,24.39,24.56,54.01,39.12,87.74,45.65,29.54,5.72,58.8,4.62,87.29-5.52,40.32-14.35,65.99-42.89,79.02-83.27,7.64-23.67,10.98-48.04,11.07-72.82.16-47.78.05-95.57.05-143.35v-4.28s.09,0,.14,0Z"/>
  <path d="m305.58,727.88c0,50.79-.02,101.57.03,152.36,0,4.55.7,9.1.62,13.65-.12,7-6.39,10.53-12.27,6.81-53.79-34.11-94.61-78.76-114.23-140.65-6.62-20.88-10.08-42.37-12.9-64-4.44-33.98-6.7-68.12-5.87-102.38,1.09-45.27,5.03-90.28,18.26-133.85,23.24-76.55,73.45-128.49,146.98-158.5,38.22-15.6,77.94-24.23,119.35-25.08,53.31-1.1,103.72,10.98,151.99,32.8,18.39,8.31,23.51,19.12,22.93,40.56-.78,28.5-.69,57.03-.87,85.55-.1,15.26.02,30.53.05,45.79,0,4.41.39,8.84.02,13.22-.43,4.99-3.46,7.98-8.32,9.08-4.77,1.08-8.91,0-11.56-4.3-3.42-5.58-6.24-11.54-9.86-16.98-24.53-36.82-59.43-58.26-102.1-67.59-30.42-6.65-60.64-5.3-90.29,4.5-39.12,12.94-64.9,39.39-78.42,78.11-7.44,21.33-10.26,43.48-11.97,65.84-2.79,36.46-1.49,72.95-.93,109.45.29,18.53.05,37.07.05,55.6-.23,0-.47,0-.7,0Z"/>
</svg>