<?xml version="1.0" encoding="UTF-8"?>
<svg id="Capa_1" data-name="Capa 1" xmlns="http://www.w3.org/2000/svg" viewBox="0 0 1080 1080">
  <path fill="#fff" d="m773.06,356.74s-.09,0-.14,0v4.28c0,47.78.12,95.57-.05,143.35-.09,24.79-3.43,49.15-11.07,72.82-13.04,40.38-38.7,68.92-79.02,83.27-28.48,10.14-57.75,11.23-87.29,5.52-33.73-6.53-63.36-21.09-87.74-45.65-10.95-11.02-19.58-23.66-26.64-37.48-3.34-6.55-7.58-8.28-13.61-6.67-5.63,1.5-8.27,5.26-8.34,12.33-.04,4.41.38,8.83.37,13.25-.11,46.36-.16,92.71-.48,139.07-.09,12.76,5.37,21.49,16.88,26.66,1.3.58,2.57,1.22,3.85,1.84,41.05,19.69,84.12,31.89,129.7,34.28,49.76,2.61,97.7-6.11,143.75-24.92,53.29-21.76,95.7-56.37,124.38-106.88,21.85-38.47,32.18-80.42,37.42-123.9,3.88-32.2,4.98-64.49,3.6-96.89-1.35-31.79-3.76-63.49-9.66-94.78-11.8-62.63-41.72-114.7-92.13-154.26-10.61-8.32-22.2-15.47-33.74-22.5-5.77-3.51-8.72-1.47-9.36,5.25-.42,4.39-.65,8.82-.66,13.23-.04,52.92-.03,105.85-.03,158.77Zm-467.48,371.14c.23,0,.47,0,.7,0,0-18.53.24-37.07-.05-55.6-.57-36.49-1.86-72.99.93-109.45,1.71-22.36,4.53-44.51,11.97-65.84,13.52-38.72,39.3-65.17,78.42-78.11,29.64-9.81,59.87-11.15,90.29-4.5,42.67,9.33,77.57,30.76,102.1,67.59,3.62,5.44,6.44,11.4,9.86,16.98,2.65,4.31,6.79,5.38,11.56,4.3,4.86-1.1,7.89-4.08,8.32-9.08.37-4.37,0-8.81-.02-13.22-.03-15.26-.15-30.53-.05-45.79.18-28.52.09-57.05.87-85.55.58-21.44-4.54-32.25-22.93-40.56-48.27-21.82-98.68-33.9-151.99-32.8-41.41.85-81.13,9.48-119.35,25.08-73.53,30.02-123.74,81.95-146.98,158.5-13.23,43.57-17.17,88.58-18.26,133.85-.83,34.26,1.43,68.4,5.87,102.38,2.83,21.63,6.28,43.12,12.9,64,19.62,61.89,60.44,106.54,114.23,140.65,5.88,3.73,12.15.19,12.27-6.81.08-4.54-.62-9.1-.62-13.65-.05-50.79-.03-101.57-.03-152.36Z"/>
</svg>